<svg width="23" height="16" viewBox="0 0 23 16" fill="none" xmlns="http://www.w3.org/2000/svg">
<path d="M0.411133 16V13.2C0.411133 12.6333 0.556966 12.1125 0.848633 11.6375C1.1403 11.1625 1.5278 10.8 2.01113 10.55C3.04447 10.0333 4.09447 9.64583 5.16113 9.3875C6.2278 9.12917 7.31113 9 8.41113 9C9.51113 9 10.5945 9.12917 11.6611 9.3875C12.7278 9.64583 13.7778 10.0333 14.8111 10.55C15.2945 10.8 15.682 11.1625 15.9736 11.6375C16.2653 12.1125 16.4111 12.6333 16.4111 13.2V16H0.411133ZM18.4111 16V13C18.4111 12.2667 18.207 11.5625 17.7986 10.8875C17.3903 10.2125 16.8111 9.63333 16.0611 9.15C16.9111 9.25 17.7111 9.42083 18.4611 9.6625C19.2111 9.90417 19.9111 10.2 20.5611 10.55C21.1611 10.8833 21.6195 11.2542 21.9361 11.6625C22.2528 12.0708 22.4111 12.5167 22.4111 13V16H18.4111ZM8.41113 8C7.31113 8 6.36947 7.60833 5.58613 6.825C4.8028 6.04167 4.41113 5.1 4.41113 4C4.41113 2.9 4.8028 1.95833 5.58613 1.175C6.36947 0.391667 7.31113 0 8.41113 0C9.51113 0 10.4528 0.391667 11.2361 1.175C12.0195 1.95833 12.4111 2.9 12.4111 4C12.4111 5.1 12.0195 6.04167 11.2361 6.825C10.4528 7.60833 9.51113 8 8.41113 8ZM18.4111 4C18.4111 5.1 18.0195 6.04167 17.2361 6.825C16.4528 7.60833 15.5111 8 14.4111 8C14.2278 8 13.9945 7.97917 13.7111 7.9375C13.4278 7.89583 13.1945 7.85 13.0111 7.8C13.4611 7.26667 13.807 6.675 14.0486 6.025C14.2903 5.375 14.4111 4.7 14.4111 4C14.4111 3.3 14.2903 2.625 14.0486 1.975C13.807 1.325 13.4611 0.733333 13.0111 0.2C13.2445 0.116667 13.4778 0.0625 13.7111 0.0375C13.9445 0.0125 14.1778 0 14.4111 0C15.5111 0 16.4528 0.391667 17.2361 1.175C18.0195 1.95833 18.4111 2.9 18.4111 4Z" fill="black"/>
</svg>
