<svg width="24" height="24" viewBox="0 0 24 24" fill="none" xmlns="http://www.w3.org/2000/svg">
<circle cx="12" cy="12" r="12" fill="#00D496"/>
<path d="M18.3058 6.63836C17.3779 7.57634 13.8114 11.1779 11.9354 13.0751C11.9013 13.1102 11.8459 13.1083 11.8118 13.0742C9.74955 10.9907 7.7168 8.93674 5.63055 6.82928C5.54662 6.74443 5.40089 6.80345 5.40089 6.92243L5.40366 10.2021C5.40366 10.2261 10.1452 14.9585 11.833 16.6666C11.8875 16.7219 11.9751 16.7228 12.0304 16.6675C14.2172 14.4899 18.5326 10.1901 18.5326 10.1901V6.73336C18.5317 6.6153 18.3897 6.55535 18.3067 6.63928L18.3058 6.63836Z" fill="#060508"/>
<path d="M8.64466 14.9152C8.69354 14.8672 8.69354 14.7879 8.64466 14.739C7.6375 13.719 6.6368 12.7054 5.6112 11.6668C5.53373 11.5885 5.39999 11.6419 5.39999 11.7526V14.8285V17.3307C5.39999 17.4045 5.45994 17.4644 5.53373 17.4644H6.00595C6.04099 17.4644 6.0742 17.4506 6.0991 17.4257C6.94854 16.5873 7.80259 15.7462 8.64466 14.9152Z" fill="#060508"/>
<path d="M18.6 14.7658V11.7674C18.6 11.6687 18.481 11.618 18.4109 11.6881C17.3936 12.6915 16.3653 13.7052 15.3544 14.7022C15.3184 14.7381 15.3184 14.7962 15.3544 14.8322C16.2085 15.6973 17.0616 16.5615 17.9267 17.4377C17.9442 17.4552 17.9673 17.4654 17.9913 17.4654H18.4663C18.5401 17.4654 18.6 17.4054 18.6 17.3317V14.7667V14.7658Z" fill="#060508"/>
</svg>
