<svg width="24" height="24" viewBox="0 0 24 24" fill="none" xmlns="http://www.w3.org/2000/svg">
<mask id="mask0_124_5996" style="mask-type:alpha" maskUnits="userSpaceOnUse" x="0" y="0" width="24" height="24">
<rect width="24" height="24" fill="#D9D9D9"/>
</mask>
<g mask="url(#mask0_124_5996)">
<path d="M6 19C5.71667 19 5.47917 18.9042 5.2875 18.7125C5.09583 18.5209 5 18.2834 5 18V10C5 9.71672 5.09583 9.47922 5.2875 9.28755C5.47917 9.09588 5.71667 9.00005 6 9.00005C6.28333 9.00005 6.52083 9.09588 6.7125 9.28755C6.90417 9.47922 7 9.71672 7 10V15.6L17.9 4.70005C18.0833 4.51672 18.3167 4.42505 18.6 4.42505C18.8833 4.42505 19.1167 4.51672 19.3 4.70005C19.4833 4.88338 19.575 5.11672 19.575 5.40005C19.575 5.68338 19.4833 5.91672 19.3 6.10005L8.4 17H14C14.2833 17 14.5208 17.0959 14.7125 17.2875C14.9042 17.4792 15 17.7167 15 18C15 18.2834 14.9042 18.5209 14.7125 18.7125C14.5208 18.9042 14.2833 19 14 19H6Z" fill="black"/>
</g>
</svg>
