<svg width="24" height="24" viewBox="0 0 24 24" fill="none" xmlns="http://www.w3.org/2000/svg">
<mask id="mask0_124_5997" style="mask-type:alpha" maskUnits="userSpaceOnUse" x="0" y="0" width="24" height="24">
<rect width="24" height="24" fill="#D9D9D9"/>
</mask>
<g mask="url(#mask0_124_5997)">
<path d="M17 8.4L6.1 19.3C5.91667 19.4833 5.68334 19.575 5.4 19.575C5.11667 19.575 4.88334 19.4833 4.7 19.3C4.51667 19.1167 4.425 18.8833 4.425 18.6C4.425 18.3167 4.51667 18.0833 4.7 17.9L15.6 7H10C9.71667 7 9.47917 6.90417 9.2875 6.7125C9.09584 6.52083 9 6.28333 9 6C9 5.71667 9.09584 5.47917 9.2875 5.2875C9.47917 5.09583 9.71667 5 10 5H18C18.2833 5 18.5208 5.09583 18.7125 5.2875C18.9042 5.47917 19 5.71667 19 6V14C19 14.2833 18.9042 14.5208 18.7125 14.7125C18.5208 14.9042 18.2833 15 18 15C17.7167 15 17.4792 14.9042 17.2875 14.7125C17.0958 14.5208 17 14.2833 17 14V8.4Z" fill="black"/>
</g>
</svg>
