<svg width="20" height="20" viewBox="0 0 20 20" fill="none" xmlns="http://www.w3.org/2000/svg">
<path d="M3 15V10C3 9.71667 3.09583 9.47917 3.2875 9.2875C3.47917 9.09583 3.71667 9 4 9C4.28333 9 4.52083 9.09583 4.7125 9.2875C4.90417 9.47917 5 9.71667 5 10V15C5 15.2833 4.90417 15.5208 4.7125 15.7125C4.52083 15.9042 4.28333 16 4 16C3.71667 16 3.47917 15.9042 3.2875 15.7125C3.09583 15.5208 3 15.2833 3 15ZM9 15V10C9 9.71667 9.09583 9.47917 9.2875 9.2875C9.47917 9.09583 9.71667 9 10 9C10.2833 9 10.5208 9.09583 10.7125 9.2875C10.9042 9.47917 11 9.71667 11 10V15C11 15.2833 10.9042 15.5208 10.7125 15.7125C10.5208 15.9042 10.2833 16 10 16C9.71667 16 9.47917 15.9042 9.2875 15.7125C9.09583 15.5208 9 15.2833 9 15ZM1 20C0.716667 20 0.479167 19.9042 0.2875 19.7125C0.0958333 19.5208 0 19.2833 0 19C0 18.7167 0.0958333 18.4792 0.2875 18.2875C0.479167 18.0958 0.716667 18 1 18H19C19.2833 18 19.5208 18.0958 19.7125 18.2875C19.9042 18.4792 20 18.7167 20 19C20 19.2833 19.9042 19.5208 19.7125 19.7125C19.5208 19.9042 19.2833 20 19 20H1ZM15 15V10C15 9.71667 15.0958 9.47917 15.2875 9.2875C15.4792 9.09583 15.7167 9 16 9C16.2833 9 16.5208 9.09583 16.7125 9.2875C16.9042 9.47917 17 9.71667 17 10V15C17 15.2833 16.9042 15.5208 16.7125 15.7125C16.5208 15.9042 16.2833 16 16 16C15.7167 16 15.4792 15.9042 15.2875 15.7125C15.0958 15.5208 15 15.2833 15 15ZM19 7H0.9C0.65 7 0.4375 6.9125 0.2625 6.7375C0.0875 6.5625 0 6.35 0 6.1V5.55C0 5.36667 0.0458333 5.20833 0.1375 5.075C0.229167 4.94167 0.35 4.83333 0.5 4.75L9.1 0.45C9.38333 0.316667 9.68333 0.25 10 0.25C10.3167 0.25 10.6167 0.316667 10.9 0.45L19.45 4.725C19.6333 4.80833 19.7708 4.93333 19.8625 5.1C19.9542 5.26667 20 5.44167 20 5.625V6C20 6.28333 19.9042 6.52083 19.7125 6.7125C19.5208 6.90417 19.2833 7 19 7Z" fill="black"/>
</svg>
